<svg xmlns="http://www.w3.org/2000/svg" xmlns:xlink="http://www.w3.org/1999/xlink" id="Camada_1" x="0px" y="0px" viewBox="0 0 160 50" style="enable-background:new 0 0 160 50;" xml:space="preserve">
<style type="text/css">
	.st0{fill:#070707;}
	.st1{fill:#FFFFFF;}
	.st2{fill:#FFFFFF;stroke:#FFFFFF;stroke-width:0.1;}
	.st3{fill:url(#path64_1_);}
	.st4{fill:url(#path78_1_);}
	.st5{fill:url(#path88_1_);}
	.st6{fill:url(#path104_1_);}
</style>
<g id="download_play">
	<path id="Rectangle_5" class="st0" d="M5,0h150c2.8,0,5,2.2,5,5v40c0,2.8-2.2,5-5,5H5c-2.8,0-5-2.2-5-5V5C0,2.2,2.2,0,5,0z"></path>
	<g id="path46">
		<path class="st1" d="M81.3,27c-2.8,0-5,2.1-5,4.9c0,2.8,2.3,4.9,5,4.9c2.8,0,5-2.1,5-4.9C86.3,29.1,84,27,81.3,27z M81.3,34.9    c-1.5,0-2.8-1.2-2.8-3c0-1.8,1.3-3,2.8-3c1.5,0,2.8,1.2,2.8,3C84.1,33.7,82.8,34.9,81.3,34.9z M70.3,27c-2.8,0-5,2.1-5,4.9    c0,2.8,2.2,4.9,5,4.9c2.8,0,5-2.1,5-4.9C75.4,29.1,73.1,27,70.3,27z M70.3,34.9c-1.5,0-2.8-1.2-2.8-3c0-1.8,1.3-3,2.8-3    c1.5,0,2.8,1.2,2.8,3C73.2,33.7,71.9,34.9,70.3,34.9z M57.3,28.5v2.1h5.1c-0.1,1.2-0.5,2-1.2,2.6c-0.7,0.7-1.9,1.5-3.9,1.5    c-3.1,0-5.6-2.5-5.6-5.6c0-3.1,2.4-5.6,5.6-5.6c1.7,0,2.9,0.7,3.8,1.5l1.5-1.5c-1.3-1.2-3-2.1-5.3-2.1c-4.3,0-7.9,3.4-7.9,7.7    c0,4.2,3.6,7.7,7.9,7.7c2.3,0,4-0.7,5.4-2.2c1.4-1.4,1.8-3.3,1.8-4.9c0-0.5,0-0.9-0.1-1.3L57.3,28.5L57.3,28.5z M110.5,30.1    c-0.4-1.1-1.7-3.1-4.3-3.1c-2.6,0-4.7,2-4.7,4.9c0,2.8,2.1,4.9,5,4.9c2.3,0,3.6-1.4,4.2-2.2l-1.7-1.1c-0.6,0.8-1.3,1.4-2.5,1.4    c-1.1,0-1.9-0.5-2.4-1.5l6.7-2.7L110.5,30.1z M103.7,31.8c-0.1-1.9,1.5-2.9,2.6-2.9c0.9,0,1.6,0.4,1.9,1L103.7,31.8z M98.3,36.6    h2.2V22.1h-2.2V36.6z M94.7,28.1L94.7,28.1C94.1,27.5,93.2,27,92,27c-2.5,0-4.8,2.2-4.8,5c0,2.8,2.3,4.9,4.8,4.9    c1.2,0,2.1-0.5,2.6-1.1h0.1v0.7c0,1.9-1,2.9-2.7,2.9c-1.3,0-2.2-1-2.5-1.8l-1.9,0.8c0.6,1.3,2,2.9,4.4,2.9c2.6,0,4.7-1.5,4.7-5.1    v-8.9h-2.1C94.7,27.3,94.7,28.1,94.7,28.1z M92.2,34.9c-1.5,0-2.8-1.3-2.8-3c0-1.7,1.3-3,2.8-3c1.5,0,2.7,1.3,2.7,3    C94.9,33.7,93.7,34.9,92.2,34.9z M120.8,22.1h-5.2v14.5h2.2v-5.5h3.1c2.4,0,4.8-1.7,4.8-4.5C125.6,23.8,123.2,22.1,120.8,22.1z     M120.9,29h-3.1v-5h3.1c1.6,0,2.6,1.3,2.6,2.5C123.4,27.7,122.5,29,120.9,29z M134.4,27c-1.6,0-3.2,0.7-3.9,2.2l1.9,0.8    c0.4-0.8,1.2-1.1,2-1.1c1.1,0,2.3,0.7,2.3,1.9v0.2c-0.4-0.2-1.2-0.6-2.3-0.6c-2.1,0-4.2,1.1-4.2,3.3c0,1.9,1.7,3.2,3.6,3.2    c1.5,0,2.3-0.7,2.8-1.4h0.1v1.1h2.1V31C138.9,28.4,136.9,27,134.4,27z M134.1,34.9c-0.7,0-1.7-0.4-1.7-1.2c0-1.1,1.2-1.6,2.3-1.6    c1,0,1.4,0.2,2,0.5C136.6,34,135.4,34.9,134.1,34.9z M146.6,27.3l-2.5,6.3H144l-2.6-6.3H139l3.9,8.8l-2.2,4.9h2.3l6-13.7H146.6z     M126.8,36.6h2.2V22.1h-2.2V36.6z"></path>
		<path class="st2" d="M81.3,27c-2.8,0-5,2.1-5,4.9c0,2.8,2.3,4.9,5,4.9c2.8,0,5-2.1,5-4.9C86.3,29.1,84,27,81.3,27z M81.3,34.9    c-1.5,0-2.8-1.2-2.8-3c0-1.8,1.3-3,2.8-3c1.5,0,2.8,1.2,2.8,3C84.1,33.7,82.8,34.9,81.3,34.9z M70.3,27c-2.8,0-5,2.1-5,4.9    c0,2.8,2.2,4.9,5,4.9c2.8,0,5-2.1,5-4.9C75.4,29.1,73.1,27,70.3,27z M70.3,34.9c-1.5,0-2.8-1.2-2.8-3c0-1.8,1.3-3,2.8-3    c1.5,0,2.8,1.2,2.8,3C73.2,33.7,71.9,34.9,70.3,34.9z M57.3,28.5v2.1h5.1c-0.1,1.2-0.5,2-1.2,2.6c-0.7,0.7-1.9,1.5-3.9,1.5    c-3.1,0-5.6-2.5-5.6-5.6c0-3.1,2.4-5.6,5.6-5.6c1.7,0,2.9,0.7,3.8,1.5l1.5-1.5c-1.3-1.2-3-2.1-5.3-2.1c-4.3,0-7.9,3.4-7.9,7.7    c0,4.2,3.6,7.7,7.9,7.7c2.3,0,4-0.7,5.4-2.2c1.4-1.4,1.8-3.3,1.8-4.9c0-0.5,0-0.9-0.1-1.3L57.3,28.5L57.3,28.5z M110.5,30.1    c-0.4-1.1-1.7-3.1-4.3-3.1c-2.6,0-4.7,2-4.7,4.9c0,2.8,2.1,4.9,5,4.9c2.3,0,3.6-1.4,4.2-2.2l-1.7-1.1c-0.6,0.8-1.3,1.4-2.5,1.4    c-1.1,0-1.9-0.5-2.4-1.5l6.7-2.7L110.5,30.1z M103.7,31.8c-0.1-1.9,1.5-2.9,2.6-2.9c0.9,0,1.6,0.4,1.9,1L103.7,31.8z M98.3,36.6    h2.2V22.1h-2.2V36.6z M94.7,28.1L94.7,28.1C94.1,27.5,93.2,27,92,27c-2.5,0-4.8,2.2-4.8,5c0,2.8,2.3,4.9,4.8,4.9    c1.2,0,2.1-0.5,2.6-1.1h0.1v0.7c0,1.9-1,2.9-2.7,2.9c-1.3,0-2.2-1-2.5-1.8l-1.9,0.8c0.6,1.3,2,2.9,4.4,2.9c2.6,0,4.7-1.5,4.7-5.1    v-8.9h-2.1C94.7,27.3,94.7,28.1,94.7,28.1z M92.2,34.9c-1.5,0-2.8-1.3-2.8-3c0-1.7,1.3-3,2.8-3c1.5,0,2.7,1.3,2.7,3    C94.9,33.7,93.7,34.9,92.2,34.9z M120.8,22.1h-5.2v14.5h2.2v-5.5h3.1c2.4,0,4.8-1.7,4.8-4.5C125.6,23.8,123.2,22.1,120.8,22.1z     M120.9,29h-3.1v-5h3.1c1.6,0,2.6,1.3,2.6,2.5C123.4,27.7,122.5,29,120.9,29z M134.4,27c-1.6,0-3.2,0.7-3.9,2.2l1.9,0.8    c0.4-0.8,1.2-1.1,2-1.1c1.1,0,2.3,0.7,2.3,1.9v0.2c-0.4-0.2-1.2-0.6-2.3-0.6c-2.1,0-4.2,1.1-4.2,3.3c0,1.9,1.7,3.2,3.6,3.2    c1.5,0,2.3-0.7,2.8-1.4h0.1v1.1h2.1V31C138.9,28.4,136.9,27,134.4,27z M134.1,34.9c-0.7,0-1.7-0.4-1.7-1.2c0-1.1,1.2-1.6,2.3-1.6    c1,0,1.4,0.2,2,0.5C136.6,34,135.4,34.9,134.1,34.9z M146.6,27.3l-2.5,6.3H144l-2.6-6.3H139l3.9,8.8l-2.2,4.9h2.3l6-13.7H146.6z     M126.8,36.6h2.2V22.1h-2.2V36.6z"></path>
	</g>
	<g id="g48">
		
			<linearGradient id="path64_1_" gradientUnits="userSpaceOnUse" x1="26.8145" y1="1065.4443" x2="7.3435" y2="1045.7443" gradientTransform="matrix(1 0 0 1 0 -1027.3208)">
			<stop offset="0" style="stop-color:#4696D2"></stop>
			<stop offset="6.599999e-03" style="stop-color:#4598D3"></stop>
			<stop offset="0.2601" style="stop-color:#3FB9EB"></stop>
			<stop offset="0.5122" style="stop-color:#4AC1ED"></stop>
			<stop offset="0.7604" style="stop-color:#5CC4E6"></stop>
			<stop offset="1" style="stop-color:#60C4E5"></stop>
		</linearGradient>
		<path id="path64" class="st3" d="M13.5,10.5c-0.3,0.4-0.5,0.9-0.5,1.6v25.7c0,0.7,0.2,1.3,0.5,1.6l0.1,0.1l14.5-14.4v-0.3    L13.5,10.5L13.5,10.5z"></path>
	</g>
	<g id="g66">
		
			<linearGradient id="path78_1_" gradientUnits="userSpaceOnUse" x1="41.0137" y1="1052.2738" x2="12.6079" y2="1052.2738" gradientTransform="matrix(1 0 0 1 0 -1027.3208)">
			<stop offset="0" style="stop-color:#FFE00A"></stop>
			<stop offset="0.4087" style="stop-color:#FBBC0F"></stop>
			<stop offset="0.7754" style="stop-color:#F7A418"></stop>
			<stop offset="1" style="stop-color:#F59A1B"></stop>
		</linearGradient>
		<path id="path78" class="st4" d="M33,29.9l-4.8-4.8v-0.3L33,20l0.1,0.1l5.7,3.2c1.6,0.9,1.6,2.4,0,3.3l-5.7,3.2L33,29.9z"></path>
	</g>
	<g id="g80">
		
			<linearGradient id="path88_1_" gradientUnits="userSpaceOnUse" x1="20.6756" y1="1059.2603" x2="-5.7287" y2="1032.5449" gradientTransform="matrix(1 0 0 1 0 -1027.3208)">
			<stop offset="0" style="stop-color:#E8404A"></stop>
			<stop offset="1" style="stop-color:#C31262"></stop>
		</linearGradient>
		<path id="path88" class="st5" d="M33.1,29.9l-5-4.9L13.5,39.4c0.5,0.6,1.4,0.6,2.4,0.1L33.1,29.9z"></path>
	</g>
	<g id="g90">
		
			<linearGradient id="path104_1_" gradientUnits="userSpaceOnUse" x1="0.3397" y1="1065.8639" x2="12.1305" y2="1053.9349" gradientTransform="matrix(1 0 0 1 0 -1027.3208)">
			<stop offset="0" style="stop-color:#32A071"></stop>
			<stop offset="6.850000e-02" style="stop-color:#2DA771"></stop>
			<stop offset="0.4762" style="stop-color:#4FB26F"></stop>
			<stop offset="0.8009" style="stop-color:#61B668"></stop>
			<stop offset="1" style="stop-color:#64B664"></stop>
		</linearGradient>
		<path id="path104" class="st6" d="M33.1,20.1L16,10.4c-1-0.6-1.9-0.5-2.4,0.1L28.2,25L33.1,20.1z"></path>
	</g>
	<path id="GET_IT_ON_x5F_3" class="st1" d="M51,13.6v-0.9c0-0.9,0.2-1.7,0.7-2.2c0.5-0.5,1.2-0.8,2-0.8c0.4,0,0.8,0.1,1.1,0.2   c0.3,0.1,0.6,0.3,0.8,0.5c0.2,0.2,0.4,0.4,0.5,0.7c0.1,0.3,0.2,0.5,0.2,0.8h-1.2c0-0.4-0.2-0.7-0.5-0.9c-0.3-0.2-0.6-0.3-1-0.3   c-0.5,0-0.9,0.2-1.2,0.5c-0.3,0.3-0.4,0.8-0.4,1.5v0.9c0,0.6,0.1,1.1,0.4,1.5c0.3,0.4,0.7,0.5,1.2,0.5c0.4,0,0.8-0.1,1.1-0.4   c0.3-0.2,0.4-0.6,0.4-0.9v-0.5h-1.5v-0.9h2.6v1.3c0,0.2,0,0.4-0.1,0.6c-0.1,0.2-0.1,0.4-0.3,0.6c-0.1,0.2-0.3,0.4-0.5,0.6   c-0.2,0.2-0.4,0.3-0.8,0.4c-0.3,0.1-0.6,0.1-1,0.1c-0.9,0-1.6-0.3-2.1-0.8C51.2,15.3,51,14.5,51,13.6z M58.4,16.5V9.8h4.2v1h-3v1.8   h2.9v0.9h-2.9v1.9h3v1H58.4z M64,10.8v-1h5v1h-1.9v5.7h-1.2v-5.7H64z M73.4,16.5V9.8h1.2v6.7H73.4z M76.2,10.8v-1h5v1h-1.9v5.7   h-1.2v-5.7H76.2z M85.4,13.6v-0.9c0-0.9,0.3-1.7,0.8-2.2c0.5-0.5,1.2-0.8,2.1-0.8c0.9,0,1.5,0.3,2,0.8c0.5,0.5,0.7,1.3,0.7,2.2v0.9   c0,0.9-0.3,1.7-0.8,2.2c-0.5,0.5-1.2,0.8-2.1,0.8c-0.9,0-1.6-0.3-2-0.8C85.7,15.3,85.4,14.6,85.4,13.6z M86.6,13.6   c0,0.7,0.1,1.1,0.4,1.5c0.3,0.3,0.7,0.5,1.2,0.5c0.5,0,0.9-0.2,1.2-0.5c0.3-0.3,0.4-0.8,0.4-1.5v-0.9c0-0.7-0.1-1.2-0.4-1.5   c-0.3-0.4-0.7-0.5-1.2-0.5c-0.5,0-0.9,0.2-1.2,0.5c-0.3,0.4-0.4,0.9-0.4,1.5V13.6z M93,16.5V9.8h1l3.1,4.7h0V9.8h1.1v6.7h-1   l-3.1-4.7h0v4.7H93z"></path>
</g>
</svg>