<svg xmlns="http://www.w3.org/2000/svg" xmlns:xlink="http://www.w3.org/1999/xlink" id="Camada_1" x="0px" y="0px" viewBox="0 0 160 50" style="enable-background:new 0 0 160 50;" xml:space="preserve">
<style type="text/css">
	.st0{fill:#010202;}
	.st1{fill-rule:evenodd;clip-rule:evenodd;fill:#FFFFFF;}
	.st2{fill:#FFFFFF;}
</style>
<g id="download_apple">
	<path id="Rectangle_2" class="st0" d="M5,0h150c2.8,0,5,2.2,5,5v40c0,2.8-2.2,5-5,5H5c-2.8,0-5-2.2-5-5V5C0,2.2,2.2,0,5,0z"></path>
	<path id="Shape" class="st1" d="M31.4,8.5c0.3,1.8-0.5,3.6-1.5,4.9c-1,1.4-2.9,2.4-4.6,2.3c-0.3-1.7,0.5-3.5,1.5-4.8   C28,9.6,29.8,8.6,31.4,8.5z M36.7,34.1c0.9-1.4,1.2-2.1,1.9-3.6c-5.1-1.9-5.9-9.2-0.9-11.9c-1.5-1.9-3.7-3-5.7-3   c-1.5,0-2.5,0.4-3.4,0.7c-0.8,0.3-1.5,0.6-2.3,0.6c-0.9,0-1.7-0.3-2.6-0.6c-0.9-0.3-1.9-0.7-3.1-0.7c-2.3,0-4.7,1.4-6.3,3.8   c-2.2,3.4-1.8,9.7,1.7,15.1c1.3,1.9,2.9,4.1,5.1,4.1c0.9,0,1.5-0.3,2.2-0.6c0.8-0.3,1.6-0.7,3-0.7c1.4,0,2.2,0.4,3,0.7   c0.6,0.3,1.2,0.6,2.1,0.6C33.7,38.5,35.4,36.1,36.7,34.1z"></path>
	<g id="Group_2_x5F_2">
		<path id="DOWNLOAD_ON_THE" class="st2" d="M51.2,10.5v6h2.1c2,0,2.7-1.3,2.7-3c0-1.8-0.7-3-2.7-3H51.2z M52.2,11.4h0.9    c1.3,0,1.7,0.9,1.7,2.1c0,1.5-0.6,2.1-1.7,2.1h-0.9V11.4z M58.5,13.1c0-1.2,0.6-1.8,1.4-1.8c0.8,0,1.4,0.6,1.4,1.8v0.8    c0,1.2-0.6,1.8-1.4,1.8c-0.8,0-1.4-0.6-1.4-1.8V13.1z M57.4,13.9c0,1.7,1,2.7,2.5,2.7c1.6,0,2.5-1,2.5-2.7v-0.8    c0-1.7-1-2.7-2.5-2.7c-1.6,0-2.5,1-2.5,2.7C57.4,13.1,57.4,13.9,57.4,13.9z M66.2,16.5l1.2-4.3h0l1.2,4.3h1l1.6-6H70l-1,4.4h0    l-1.1-4.4h-1l-1.1,4.4h0l-1-4.4h-1.1l1.6,6H66.2z M73.6,16.5v-4.2h0l2.8,4.2h0.9v-6h-1v4.2h0l-2.8-4.2h-0.9v6H73.6z M83,15.6h-2.6    v-5.1h-1.1v6H83V15.6z M85.3,13.1c0-1.2,0.6-1.8,1.4-1.8c0.8,0,1.4,0.6,1.4,1.8v0.8c0,1.2-0.6,1.8-1.4,1.8c-0.8,0-1.4-0.6-1.4-1.8    V13.1z M84.2,13.9c0,1.7,1,2.7,2.5,2.7c1.6,0,2.5-1,2.5-2.7v-0.8c0-1.7-1-2.7-2.5-2.7c-1.6,0-2.5,1-2.5,2.7    C84.2,13.1,84.2,13.9,84.2,13.9z M91.4,16.5l0.5-1.6H94l0.5,1.6h1.1l-2-6h-1.2l-2,6H91.4z M93,11.6l0.8,2.5h-1.6L93,11.6L93,11.6z     M97.1,10.5v6h2.1c2,0,2.7-1.3,2.7-3c0-1.8-0.7-3-2.7-3H97.1z M98.2,11.4h0.9c1.3,0,1.7,0.9,1.7,2.1c0,1.5-0.6,2.1-1.7,2.1h-0.9    V11.4z M107,13.1c0-1.2,0.6-1.8,1.4-1.8c0.8,0,1.4,0.6,1.4,1.8v0.8c0,1.2-0.6,1.8-1.4,1.8c-0.8,0-1.4-0.6-1.4-1.8V13.1z     M105.9,13.9c0,1.7,1,2.7,2.5,2.7c1.6,0,2.5-1,2.5-2.7v-0.8c0-1.7-1-2.7-2.5-2.7c-1.6,0-2.5,1-2.5,2.7V13.9z M113.7,16.5v-4.2h0    l2.8,4.2h0.9v-6h-1v4.2h0l-2.8-4.2h-0.9v6H113.7z M124.2,16.5v-5.1h1.7v-0.9h-4.5v0.9h1.7v5.1H124.2z M132.2,16.5v-6h-1.1V13h-2.7    v-2.5h-1.1v6h1.1v-2.6h2.7v2.6H132.2z M138,15.6h-2.7v-1.7h2.6V13h-2.6v-1.6h2.7v-0.9h-3.8v6h3.8V15.6z"></path>
		<path id="App_Store" class="st2" d="M49.2,38.5l5.2-15.3h3.1l5.2,15.3h-2.9l-1.3-4.1h-5.3l-1.3,4.1H49.2z M53.8,32.3h4.1l-2-6.4    h-0.1L53.8,32.3z M64.4,42.5V26.6H67v1.7h0.1c0.2-0.6,0.7-1,1.3-1.4c0.6-0.3,1.4-0.5,2.2-0.5c1.4,0,2.4,0.5,3.2,1.4    c0.8,1,1.2,2.3,1.2,4v1.4c0,1.7-0.4,3-1.2,4c-0.8,0.9-1.9,1.4-3.3,1.4c-0.9,0-1.6-0.2-2.2-0.5c-0.6-0.3-1-0.8-1.3-1.3h-0.1v5.7    H64.4z M67.1,33.1c0,1,0.2,1.8,0.7,2.4c0.5,0.6,1.2,0.9,2,0.9c0.8,0,1.4-0.3,1.9-0.9c0.5-0.6,0.7-1.4,0.7-2.6v-1    c0-1.1-0.2-2-0.7-2.5c-0.5-0.6-1.1-0.9-2-0.9c-0.8,0-1.5,0.3-2,0.9c-0.5,0.6-0.7,1.4-0.7,2.4L67.1,33.1L67.1,33.1z M77.4,42.5    V26.6H80v1.7h0.1c0.2-0.6,0.7-1,1.3-1.4c0.6-0.3,1.4-0.5,2.2-0.5c1.4,0,2.4,0.5,3.2,1.4c0.8,1,1.2,2.3,1.2,4v1.4    c0,1.7-0.4,3-1.2,4c-0.8,0.9-1.9,1.4-3.3,1.4c-0.9,0-1.6-0.2-2.2-0.5c-0.6-0.3-1-0.8-1.3-1.3h-0.1v5.7H77.4z M80.1,33.1    c0,1,0.2,1.8,0.7,2.4c0.5,0.6,1.2,0.9,2,0.9c0.8,0,1.4-0.3,1.9-0.9c0.5-0.6,0.7-1.4,0.7-2.6v-1c0-1.1-0.2-2-0.7-2.5    c-0.5-0.6-1.1-0.9-2-0.9c-0.8,0-1.5,0.3-2,0.9c-0.5,0.6-0.7,1.4-0.7,2.4V33.1z M93.9,34.2h2.6c0.1,0.7,0.4,1.3,1,1.7    c0.6,0.4,1.4,0.7,2.4,0.7c1,0,1.7-0.2,2.2-0.6c0.5-0.4,0.8-1,0.8-1.7c0-0.6-0.2-1-0.6-1.3c-0.4-0.3-1-0.6-1.8-0.8l-2.5-0.6    c-0.5-0.1-1-0.3-1.5-0.5c-0.4-0.2-0.8-0.5-1.2-0.8c-0.4-0.3-0.6-0.7-0.8-1.2c-0.2-0.5-0.3-1-0.3-1.6c0-1,0.3-1.8,0.8-2.5    c0.5-0.7,1.2-1.2,2-1.6s1.8-0.5,2.8-0.5c1,0,2,0.2,2.8,0.5c0.8,0.4,1.5,0.9,2,1.6c0.5,0.7,0.8,1.5,0.8,2.4h-2.6    c-0.1-0.7-0.3-1.2-0.9-1.7c-0.5-0.4-1.2-0.7-2.2-0.7c-0.9,0-1.6,0.2-2.1,0.6C97.3,26,97,26.5,97,27.2c0,1,0.7,1.7,2.1,2l2.5,0.6    c0.6,0.1,1.2,0.3,1.6,0.5c0.5,0.2,0.9,0.5,1.3,0.8c0.4,0.3,0.7,0.7,0.9,1.2c0.2,0.5,0.3,1.1,0.3,1.7c0,1.5-0.5,2.6-1.6,3.5    c-1.1,0.8-2.5,1.3-4.3,1.3c-0.8,0-1.6-0.1-2.3-0.3c-0.7-0.2-1.2-0.4-1.7-0.7c-0.4-0.3-0.8-0.7-1.1-1.1c-0.3-0.4-0.5-0.8-0.6-1.2    C94,35.1,93.9,34.7,93.9,34.2z M107.1,28.8v-2.1h1.7v-3h2.6v3h2.3v2.1h-2.3v6.1c0,0.6,0.1,1,0.4,1.3c0.3,0.2,0.7,0.3,1.4,0.3    c0.3,0,0.5,0,0.6,0v2c-0.4,0.1-0.8,0.1-1.2,0.1c-1,0-1.7-0.1-2.3-0.4s-0.9-0.6-1.2-1.1c-0.2-0.5-0.3-1.1-0.3-2v-6.4H107.1z     M115.3,33v-0.8c0-1.1,0.2-2.1,0.6-2.9c0.4-0.8,1-1.5,1.8-2c0.8-0.5,1.8-0.8,3-0.8c1.7,0,3.1,0.5,4,1.5c0.9,1,1.4,2.4,1.4,4.1V33    c0,1.8-0.5,3.2-1.4,4.2c-0.9,1-2.2,1.5-4,1.5c-1.7,0-3.1-0.5-4-1.5C115.7,36.2,115.3,34.8,115.3,33z M117.9,32.9    c0,0.5,0,1,0.1,1.4c0.1,0.4,0.2,0.8,0.4,1.2c0.2,0.4,0.5,0.6,0.8,0.8c0.4,0.2,0.8,0.3,1.3,0.3c0.5,0,0.9-0.1,1.3-0.3    c0.4-0.2,0.6-0.5,0.8-0.8c0.2-0.4,0.3-0.7,0.4-1.2c0.1-0.4,0.1-0.9,0.1-1.4v-0.7c0-0.5,0-1-0.1-1.4c-0.1-0.4-0.2-0.8-0.4-1.2    c-0.2-0.4-0.5-0.6-0.8-0.8c-0.4-0.2-0.8-0.3-1.3-0.3c-0.5,0-0.9,0.1-1.3,0.3c-0.4,0.2-0.6,0.5-0.8,0.8c-0.2,0.4-0.3,0.7-0.4,1.2    c-0.1,0.4-0.1,0.9-0.1,1.4C117.9,32.2,117.9,32.9,117.9,32.9z M128.4,38.5V26.6h2.7v1.5h0.1c0.4-1.1,1.4-1.7,2.8-1.7    c0.3,0,0.6,0,0.9,0.1v2.3c-0.2-0.1-0.6-0.1-1.1-0.1c-1.8,0-2.7,0.9-2.7,2.8v7H128.4z M135.8,33.1v-1c0-1.7,0.5-3.1,1.4-4.1    c0.9-1,2.2-1.5,3.8-1.5c1.6,0,2.9,0.5,3.8,1.5c0.9,1,1.3,2.4,1.3,4.1v1.1h-7.7v0.4c0,0.9,0.2,1.6,0.7,2.2c0.5,0.6,1.1,0.9,2,0.9    c0.7,0,1.2-0.1,1.6-0.4c0.4-0.3,0.6-0.7,0.7-1.1h2.6c0,0.3-0.1,0.7-0.3,1c-0.1,0.3-0.3,0.7-0.6,1c-0.3,0.3-0.6,0.6-0.9,0.9    c-0.4,0.2-0.8,0.4-1.3,0.6c-0.5,0.1-1.1,0.2-1.8,0.2c-1.7,0-3-0.5-3.9-1.5C136.3,36.2,135.8,34.8,135.8,33.1z M138.4,31.4h5.1v0    c0-0.9-0.2-1.5-0.7-2.1s-1.1-0.8-1.9-0.8c-0.8,0-1.4,0.3-1.9,0.8C138.6,29.8,138.4,30.5,138.4,31.4L138.4,31.4z"></path>
	</g>
</g>
</svg>